<?xml version="1.0" encoding="UTF-8"?>
<svg width="26px" height="28px" viewBox="0 0 26 28" version="1.1" xmlns="http://www.w3.org/2000/svg" xmlns:xlink="http://www.w3.org/1999/xlink">
    <!-- Generator: Sketch 52.5 (67469) - http://www.bohemiancoding.com/sketch -->
    <title>Combined Shape</title>
    <desc>Created with Sketch.</desc>
    <g id="Page-1" stroke="none" stroke-width="1" fill="none" fill-rule="evenodd">
        <g id="black_pc_1" transform="translate(-1259.000000, -10321.000000)" fill="#D0D0D0" fill-rule="nonzero">
            <g id="footer" transform="translate(0.000000, 9760.000000)">
                <g id="Group-6" transform="translate(1254.000000, 561.000000)">
                    <g id="icon-fb">
                        <path d="M18,1 L18.8123945,1.06249189 C25.6895567,1.59150437 31,7.32613145 31,14.2236103 L31,15 C31,22.1797017 25.1797017,28 18,28 C10.8202983,28 5,22.1797017 5,15 L5,13.0384048 C5,6.37013594 10.4057,0.96443595 17.0739689,0.96443595 C17.3829873,0.96443595 17.6918918,0.976299369 18,1 Z M20.7575758,7.61742424 C20.3143939,7.54924242 19.6906566,7.51515152 18.8863636,7.51515152 C17.9398148,7.51515152 17.1820286,7.8063447 16.6130051,8.38873106 C16.0439815,8.97111742 15.7594697,9.7907197 15.7594697,10.8475379 L15.7594697,12.7054924 L13.6666667,12.7054924 L13.6666667,15.2282197 L15.7594697,15.2282197 L15.7594697,21.6969697 L18.2708333,21.6969697 L18.2708333,15.2282197 L20.3554293,15.2282197 L20.6755051,12.7054924 L18.2708333,12.7054924 L18.2708333,11.094697 C18.2708333,10.6856061 18.352904,10.3787879 18.5170455,10.1742424 C18.6811869,9.96969697 18.9985269,9.86742424 19.4690657,9.86742424 L20.7575758,9.86742424 L20.7575758,7.61742424 Z" id="Combined-Shape"></path>
                    </g>
                </g>
            </g>
        </g>
    </g>
</svg>