<?xml version="1.0" encoding="UTF-8"?>
<svg width="26px" height="26px" viewBox="0 0 26 26" version="1.1" xmlns="http://www.w3.org/2000/svg" xmlns:xlink="http://www.w3.org/1999/xlink">
    <!-- Generator: Sketch 52.5 (67469) - http://www.bohemiancoding.com/sketch -->
    <title>icon-instagram</title>
    <desc>Created with Sketch.</desc>
    <g id="Page-1" stroke="none" stroke-width="1" fill="none" fill-rule="evenodd">
        <g id="black_pc_1" transform="translate(-1349.000000, -10322.000000)" fill="#D0D0D0" fill-rule="nonzero">
            <g id="footer" transform="translate(0.000000, 9760.000000)">
                <g id="Group-6" transform="translate(1254.000000, 561.000000)">
                    <g id="icon-instagram" transform="translate(95.000000, 1.000000)">
                        <path d="M13,0 L13,0 C20.1797017,-1.31888981e-15 26,5.82029825 26,13 L26,13 C26,20.1797017 20.1797017,26 13,26 L13,26 C5.82029825,26 8.79259876e-16,20.1797017 0,13 L0,13 C-8.79259876e-16,5.82029825 5.82029825,1.31888981e-15 13,0 Z M14.969697,13 C14.969697,13.5437184 14.7773438,14.0079309 14.3926373,14.3926373 C14.0079309,14.7773438 13.5437184,14.969697 13,14.969697 C12.4562816,14.969697 11.9920691,14.7773438 11.6073627,14.3926373 C11.2226562,14.0079309 11.030303,13.5437184 11.030303,13 C11.030303,12.4562816 11.2226562,11.9920691 11.6073627,11.6073627 C11.9920691,11.2226562 12.4562816,11.030303 13,11.030303 C13.5437184,11.030303 14.0079309,11.2226562 14.3926373,11.6073627 C14.7773438,11.9920691 14.969697,12.4562816 14.969697,13 Z M16.0314867,13 C16.0314867,12.1587753 15.7365451,11.4432213 15.1466619,10.8533381 C14.5567787,10.2634549 13.8412247,9.96851326 13,9.96851326 C12.1587753,9.96851326 11.4432213,10.2634549 10.8533381,10.8533381 C10.2634549,11.4432213 9.96851326,12.1587753 9.96851326,13 C9.96851326,13.8412247 10.2634549,14.5567787 10.8533381,15.1466619 C11.4432213,15.7365451 12.1587753,16.0314867 13,16.0314867 C13.8412247,16.0314867 14.5567787,15.7365451 15.1466619,15.1466619 C15.7365451,14.5567787 16.0314867,13.8412247 16.0314867,13 Z M16.8624527,9.8454072 C16.8624527,9.65048927 16.7932055,9.48378314 16.6547112,9.34528883 C16.5162169,9.20679451 16.3495107,9.13754735 16.1545928,9.13754735 C15.9596749,9.13754735 15.7929688,9.20679451 15.6544744,9.34528883 C15.5159801,9.48378314 15.446733,9.65048927 15.446733,9.8454072 C15.446733,10.0403251 15.5159801,10.2070313 15.6544744,10.3455256 C15.7929688,10.4840199 15.9596749,10.553267 16.1545928,10.553267 C16.3495107,10.553267 16.5162169,10.4840199 16.6547112,10.3455256 C16.7932055,10.2070313 16.8624527,10.0403251 16.8624527,9.8454072 Z M13,8.15269886 C13.0359059,8.15269886 13.2321062,8.15141651 13.5886009,8.1488518 C13.9450955,8.14628709 14.2156723,8.14628709 14.4003314,8.1488518 C14.5849905,8.15141651 14.832485,8.15911064 15.1428149,8.17193419 C15.4531447,8.18475773 15.7173098,8.21040483 15.9353101,8.24887547 C16.1533104,8.28734612 16.3366872,8.33479324 16.4854403,8.39121686 C16.7419113,8.49380524 16.9676057,8.6425584 17.1625237,8.83747633 C17.3574416,9.03239426 17.5061948,9.2580887 17.6087831,9.51455966 C17.6652068,9.66331282 17.7126539,9.84668955 17.7511245,10.0646899 C17.7895952,10.2826902 17.8152423,10.5468553 17.8280658,10.8571851 C17.8408894,11.167515 17.8485835,11.4150095 17.8511482,11.5996686 C17.8537129,11.7843277 17.8537129,12.0549045 17.8511482,12.4113991 C17.8485835,12.7678938 17.8473011,12.9640941 17.8473011,13 C17.8473011,13.0359059 17.8485835,13.2321062 17.8511482,13.5886009 C17.8537129,13.9450955 17.8537129,14.2156723 17.8511482,14.4003314 C17.8485835,14.5849905 17.8408894,14.832485 17.8280658,15.1428149 C17.8152423,15.4531447 17.7895952,15.7173098 17.7511245,15.9353101 C17.7126539,16.1533104 17.6652068,16.3366872 17.6087831,16.4854403 C17.5061948,16.7419113 17.3574416,16.9676057 17.1625237,17.1625237 C16.9676057,17.3574416 16.7419113,17.5061948 16.4854403,17.6087831 C16.3366872,17.6652068 16.1533104,17.7126539 15.9353101,17.7511245 C15.7173098,17.7895952 15.4531447,17.8152423 15.1428149,17.8280658 C14.832485,17.8408894 14.5849905,17.8485835 14.4003314,17.8511482 C14.2156723,17.8537129 13.9450955,17.8537129 13.5886009,17.8511482 C13.2321062,17.8485835 13.0359059,17.8473011 13,17.8473011 C12.9640941,17.8473011 12.7678938,17.8485835 12.4113991,17.8511482 C12.0549045,17.8537129 11.7843277,17.8537129 11.5996686,17.8511482 C11.4150095,17.8485835 11.167515,17.8408894 10.8571851,17.8280658 C10.5468553,17.8152423 10.2826902,17.7895952 10.0646899,17.7511245 C9.84668955,17.7126539 9.66331282,17.6652068 9.51455966,17.6087831 C9.2580887,17.5061948 9.03239426,17.3574416 8.83747633,17.1625237 C8.6425584,16.9676057 8.49380524,16.7419113 8.39121686,16.4854403 C8.33479324,16.3366872 8.28734612,16.1533104 8.24887547,15.9353101 C8.21040483,15.7173098 8.18475773,15.4531447 8.17193419,15.1428149 C8.15911064,14.832485 8.15141651,14.5849905 8.1488518,14.4003314 C8.14628709,14.2156723 8.14628709,13.9450955 8.1488518,13.5886009 C8.15141651,13.2321062 8.15269886,13.0359059 8.15269886,13 C8.15269886,12.9640941 8.15141651,12.7678938 8.1488518,12.4113991 C8.14628709,12.0549045 8.14628709,11.7843277 8.1488518,11.5996686 C8.15141651,11.4150095 8.15911064,11.167515 8.17193419,10.8571851 C8.18475773,10.5468553 8.21040483,10.2826902 8.24887547,10.0646899 C8.28734612,9.84668955 8.33479324,9.66331282 8.39121686,9.51455966 C8.49380524,9.2580887 8.6425584,9.03239426 8.83747633,8.83747633 C9.03239426,8.6425584 9.2580887,8.49380524 9.51455966,8.39121686 C9.66331282,8.33479324 9.84668955,8.28734612 10.0646899,8.24887547 C10.2826902,8.21040483 10.5468553,8.18475773 10.8571851,8.17193419 C11.167515,8.15911064 11.4150095,8.15141651 11.5996686,8.1488518 C11.7843277,8.14628709 12.0549045,8.14628709 12.4113991,8.1488518 C12.7678938,8.15141651 12.9640941,8.15269886 13,8.15269886 Z M18.9090909,13 C18.9090909,11.825363 18.8962674,11.0123501 18.8706203,10.5609612 C18.8193261,9.49404198 18.5013021,8.66820549 17.9165483,8.0834517 C17.3317945,7.49869792 16.505958,7.18067393 15.4390388,7.12937973 C14.9876499,7.10373264 14.174637,7.09090909 13,7.09090909 C11.825363,7.09090909 11.0123501,7.10373264 10.5609612,7.12937973 C9.49404198,7.18067393 8.66820549,7.49869792 8.0834517,8.0834517 C7.49869792,8.66820549 7.18067393,9.49404198 7.12937973,10.5609612 C7.10373264,11.0123501 7.09090909,11.825363 7.09090909,13 C7.09090909,14.174637 7.10373264,14.9876499 7.12937973,15.4390388 C7.18067393,16.505958 7.49869792,17.3317945 8.0834517,17.9165483 C8.66820549,18.5013021 9.49404198,18.8193261 10.5609612,18.8706203 C11.0123501,18.8962674 11.825363,18.9090909 13,18.9090909 C14.174637,18.9090909 14.9876499,18.8962674 15.4390388,18.8706203 C16.505958,18.8193261 17.3317945,18.5013021 17.9165483,17.9165483 C18.5013021,17.3317945 18.8193261,16.505958 18.8706203,15.4390388 C18.8962674,14.9876499 18.9090909,14.174637 18.9090909,13 Z" id="Shape"></path>
                    </g>
                </g>
            </g>
        </g>
    </g>
</svg>