<?xml version="1.0" encoding="utf-8"?>
<!-- Generator: Adobe Illustrator 23.0.2, SVG Export Plug-In . SVG Version: 6.00 Build 0)  -->
<svg version="1.1" id="レイヤー_1" xmlns:serif="http://www.serif.com/"
	 xmlns="http://www.w3.org/2000/svg" xmlns:xlink="http://www.w3.org/1999/xlink" x="0px" y="0px" viewBox="0 0 790.7 124.6"
	 style="enable-background:new 0 0 790.7 124.6;" xml:space="preserve">
<style type="text/css">
	.st0{fill:#040000;}
	.st1{fill:#0A7254;}
	.st2{fill:#0B9974;}
</style>
<g>
	<path class="st0" d="M22,120.5c-7.3-2.8-12.8-6.5-16.4-11.2C1.8,104.6,0,99.5,0,93.8c0-0.9,0.1-2.3,0.3-4.2c0.1-1,0.6-1.9,1.5-2.6
		c0.9-0.7,1.8-1,2.9-1h23.2c1.5,0,2.6,0.2,3.4,0.7c0.7,0.5,1.5,1.3,2.3,2.4c0.9,2.8,2.8,5.1,5.6,6.8c2.8,1.8,6.7,2.7,11.7,2.7
		c6.2,0,11.3-1,15.1-2.9c3.9-1.9,6.2-4.5,7-7.9c0.1-0.5,0.2-1.1,0.2-1.9c0-2.9-1.8-5.1-5.4-6.8c-3.6-1.6-10-3.5-19.4-5.5
		C25.5,69,14,58.9,14,43.3c0-2.8,0.3-5.6,1-8.5c2.3-10.8,8.1-19.4,17.4-25.5C41.7,3.1,53.7,0,68.4,0C77.1,0,85,1.6,91.9,4.7
		c6.9,3.1,12.3,7.1,16.2,11.9c3.9,4.8,5.8,9.6,5.8,14.5c0,0.6-0.1,1.6-0.3,2.9c-0.2,1-0.7,1.9-1.4,2.7c-0.7,0.8-1.6,1.1-2.6,1.1H85
		c-2.5,0-4.3-1-5.2-3.1c-0.2-2.4-1.6-4.5-4.1-6.1C73.2,26.8,70,26,66,26c-5,0-9,0.9-12,2.6c-3.1,1.7-5,4.3-5.8,7.6
		c-0.1,0.5-0.2,1.1-0.2,1.9c0,2.8,1.6,5,4.8,6.7c3.2,1.7,8.9,3.4,17.1,5.1c13,2.4,22.6,6.1,28.6,10.9c6,4.8,9,11.3,9,19.2
		c0,3.2-0.3,6.1-0.9,8.5c-2.5,11.9-8.7,20.9-18.6,27c-9.9,6.1-23.1,9.2-39.6,9.2C38,124.6,29.3,123.2,22,120.5"/>
	<path class="st0" d="M117.2,121.7c-0.7-0.8-0.9-1.8-0.7-3.1L140.4,6.2c0.2-1.3,0.9-2.3,1.9-3.2c1-0.9,2.2-1.3,3.5-1.3h23.5
		c1.3,0,2.2,0.4,2.9,1.3c0.7,0.9,0.9,1.9,0.7,3.2l-8.8,41h41l8.8-41c0.2-1.3,0.8-2.3,1.8-3.2c1-0.9,2.1-1.3,3.4-1.3h23.7
		c1.3,0,2.2,0.4,2.9,1.3c0.6,0.9,0.8,1.9,0.6,3.2l-23.9,112.3c-0.2,1.3-0.9,2.3-1.9,3.1c-1,0.8-2.1,1.2-3.3,1.2h-23.7
		c-1.3,0-2.2-0.4-2.9-1.3c-0.7-0.9-0.9-1.9-0.7-3l9.2-42.4h-41l-9,42.4c-0.2,1.3-0.9,2.3-1.9,3.1c-1,0.8-2.2,1.2-3.5,1.2h-23.5
		C118.9,122.9,117.9,122.5,117.2,121.7"/>
	<path class="st0" d="M246.6,121.6c-0.6-0.9-0.8-1.9-0.6-3l10.9-54.1c0.2-1.3,0.8-2.3,1.8-3.1c1-0.8,2.1-1.2,3.4-1.2h24.6
		c1.2,0,2.1,0.4,2.9,1.2c0.7,0.8,1,1.8,0.8,3.1l-10.9,54.1c-0.2,1.3-0.9,2.3-1.9,3.1c-1,0.8-2.1,1.2-3.3,1.2h-24.8
		C248.2,122.9,247.2,122.5,246.6,121.6"/>
	<path class="st0" d="M370.6,55.2c5,0,9-1.2,12.1-3.7c3.1-2.5,5.1-5.9,6.1-10.3c0.2-0.9,0.3-2.3,0.3-4c0-3.2-1-5.8-3.1-7.7
		c-2.1-1.9-5.2-2.9-9.3-2.9h-19.2l-6.1,28.6H370.6L370.6,55.2z M306.1,121.7c-0.6-0.8-0.8-1.8-0.6-3.1L329.2,6.2
		c0.2-1.3,0.9-2.3,1.9-3.2s2.2-1.3,3.5-1.3h47.6c13.2,0,23.3,2.6,30.5,7.8c7.2,5.2,10.7,12.6,10.7,22.3c0,3-0.3,6.2-1,9.5
		c-1.6,8.1-4.9,14.9-9.9,20.6c-5,5.7-11.1,10-18.3,13.2l14.4,42.2c0.2,0.8,0.3,1.4,0.2,1.9c-0.2,1-0.8,1.9-1.6,2.6
		c-0.9,0.7-1.8,1-2.9,1h-24.4c-3.2,0-5.3-1.6-6.1-4.7l-11.1-37.6H346l-8.1,37.9c-0.2,1.3-0.9,2.3-1.9,3.1c-1,0.8-2.2,1.2-3.5,1.2
		h-23.7C307.6,122.9,306.8,122.5,306.1,121.7"/>
	<path class="st0" d="M493.7,32.2l-24.8,44.1h30.8L493.7,32.2z M413.5,121.9c-0.6-0.6-0.9-1.4-0.9-2.3c0-0.6,0.2-1.2,0.5-1.9
		l63.9-111c2-3.3,4.6-5,8-5h28c3.5,0,5.4,1.7,5.9,5l16.8,111c0.1,1.6-0.2,2.9-1,3.8c-0.8,0.9-1.8,1.4-3.1,1.4h-22
		c-3.1,0-4.9-1.4-5.4-4.2l-2.8-16.4h-45.2l-10,16.8c-1.6,2.5-3.8,3.8-6.6,3.8H416C414.9,122.9,414.1,122.6,413.5,121.9"/>
	<path class="st0" d="M549.4,121.7c-0.7-0.8-0.9-1.8-0.7-3.1L572.6,6.2c0.2-1.3,0.9-2.3,1.9-3.2c1-0.9,2.2-1.3,3.5-1.3h23.5
		c1.3,0,2.3,0.4,2.9,1.3c0.7,0.9,0.9,1.9,0.7,3.2l-8.8,41h41l8.8-41C646.4,5,647,3.9,648,3c1-0.9,2.1-1.3,3.4-1.3h23.7
		c1.3,0,2.2,0.4,2.9,1.3c0.6,0.9,0.8,1.9,0.6,3.2l-23.9,112.3c-0.2,1.3-0.9,2.3-1.9,3.1c-1,0.8-2.1,1.2-3.3,1.2h-23.7
		c-1.3,0-2.2-0.4-2.9-1.3c-0.7-0.9-0.9-1.9-0.7-3l9.2-42.4h-41l-9,42.4c-0.2,1.3-0.9,2.3-1.9,3.1c-1,0.8-2.2,1.2-3.5,1.2h-23.5
		C551.1,122.9,550.1,122.5,549.4,121.7"/>
	<path class="st0" d="M723.9,76.3h30.8l-6.1-44.1L723.9,76.3z M668.5,121.9c-0.6-0.6-0.9-1.4-0.9-2.3c0-0.6,0.2-1.2,0.5-1.9L732,6.8
		c2-3.3,4.6-5,8-5h28c3.5,0,5.4,1.7,5.9,5l16.8,111c0.1,1.6-0.2,2.9-1,3.8c-0.8,0.9-1.8,1.4-3.1,1.4h-22c-3.1,0-4.9-1.4-5.4-4.2
		l-2.8-16.4h-45.2l-10,16.8c-1.6,2.5-3.8,3.8-6.6,3.8h-23.7C669.9,122.9,669.1,122.6,668.5,121.9"/>
	<path class="st1" d="M288.7,3.7c-1.3-1.3-3.1-2-4.9-1.9L269.7,2c-2.8,0-5.2,1.7-6.3,4.3c-1,2.6-0.4,5.5,1.6,7.5l13.1,12.7
		l16.8-16.8L288.7,3.7z"/>
	<path class="st2" d="M306.5,20.9L294.9,9.7l-16.8,16.8l-12.7,13.1c-1.9,2-2.5,4.9-1.4,7.5c1.1,2.5,3.5,4.1,6.2,4.1
		c0.1,0,0.1,0,0.2,0l14.1-0.2c1.8,0,3.5-0.8,4.8-2.1l17.2-17.8c1.3-1.4,2.1-3.2,2-5.1C308.7,24,307.9,22.3,306.5,20.9"/>
</g>
</svg>
