<?xml version="1.0" encoding="UTF-8"?>
<svg width="26px" height="26px" viewBox="0 0 26 26" version="1.1" xmlns="http://www.w3.org/2000/svg" xmlns:xlink="http://www.w3.org/1999/xlink">
    <!-- Generator: Sketch 52.5 (67469) - http://www.bohemiancoding.com/sketch -->
    <title>icon-tw</title>
    <desc>Created with Sketch.</desc>
    <g id="Page-1" stroke="none" stroke-width="1" fill="none" fill-rule="evenodd">
        <g id="black_pc_1" transform="translate(-1304.000000, -10323.000000)" fill="#D0D0D0" fill-rule="nonzero">
            <g id="footer" transform="translate(0.000000, 9760.000000)">
                <g id="Group-6" transform="translate(1254.000000, 561.000000)">
                    <g id="icon-tw" transform="translate(50.000000, 2.000000)">
                        <path d="M13,0 C20.1797017,-1.31888981e-15 26,5.82029825 26,13 C26,20.1797017 20.1797017,26 13,26 C5.82029825,26 8.79259876e-16,20.1797017 0,13 C-8.79259876e-16,5.82029825 5.82029825,1.31888981e-15 13,0 Z M19.6969697,9.88295455 C19.201046,10.0963384 18.7051223,10.2297033 18.2091986,10.2830492 C18.7691124,9.9469697 19.1477209,9.47219066 19.3450238,8.85871212 C18.8331026,9.16278409 18.28652,9.37083333 17.7052761,9.48285985 C17.1933549,8.93873106 16.5641183,8.66666667 15.8175665,8.66666667 C15.1030098,8.66666667 14.4937702,8.91872633 13.9898477,9.42284564 C13.4859252,9.92696496 13.233964,10.5364426 13.233964,11.2512784 C13.233964,11.4433239 13.2552941,11.6407039 13.2979542,11.8434186 C12.2421166,11.7900726 11.2516023,11.5246765 10.3264113,11.0472301 C9.40122033,10.5697838 8.61600779,9.93363321 7.97077373,9.13877841 C7.73614316,9.53887311 7.61882787,9.97364268 7.61882787,10.4430871 C7.61882787,10.8858586 7.72281188,11.2966225 7.93077988,11.6753788 C8.13874788,12.0541351 8.41870481,12.3608744 8.77065067,12.5955966 C8.35471466,12.5795928 7.96544121,12.4702336 7.60283033,12.2675189 L7.60283033,12.2995265 C7.60283033,12.9236742 7.79880018,13.471804 8.19073989,13.9439157 C8.58267959,14.4160275 9.07727016,14.7134312 9.67451161,14.8361269 C9.45054607,14.8948074 9.22391427,14.9241477 8.99461621,14.9241477 C8.84530585,14.9241477 8.68266421,14.9108112 8.50669128,14.8841383 C8.67199918,15.4015941 8.97595242,15.8270281 9.41855099,16.1604403 C9.86114957,16.4938526 10.3624058,16.6658933 10.9223196,16.6765625 C9.98379736,17.4127367 8.91462852,17.7808239 7.71481311,17.7808239 C7.48551505,17.7808239 7.27754704,17.7701547 7.09090909,17.7488163 C8.2907245,18.5223327 9.61318771,18.9090909 11.0582987,18.9090909 C11.975491,18.9090909 12.8366918,18.7637232 13.6419012,18.4729877 C14.4471107,18.1822522 15.1350049,17.7928267 15.7055838,17.3047112 C16.2761626,16.8165956 16.768087,16.2551294 17.1813567,15.6203125 C17.5946265,14.9854956 17.9025791,14.322672 18.1052146,13.6318419 C18.3078501,12.9410117 18.4091678,12.2488479 18.4091678,11.5553504 C18.4091678,11.4059817 18.4065016,11.2939552 18.4011691,11.2192708 C18.9077578,10.8511837 19.3396913,10.4057449 19.6969697,9.88295455 Z" id="Combined-Shape"></path>
                    </g>
                </g>
            </g>
        </g>
    </g>
</svg>